<?xml version="1.0" encoding="utf-8"?>
<!-- Generator: Adobe Illustrator 27.8.1, SVG Export Plug-In . SVG Version: 6.00 Build 0)  -->
<svg version="1.1" id="Camada_1" xmlns="http://www.w3.org/2000/svg" xmlns:xlink="http://www.w3.org/1999/xlink" x="0px" y="0px"
	 viewBox="0 0 1920 1080" style="enable-background:new 0 0 1920 1080;" xml:space="preserve">
<style type="text/css">
	.st0{fill:#EC1A25;}
	.st1{fill:#00AB4D;}
	.st2{font-family:'MicrosoftPhagsPa-Bold';}
	.st3{font-size:164.2792px;}
</style>
<circle class="st0" cx="390.87" cy="591.62" r="26.72"/>
<polygon class="st1" points="365.98,477.3 365.98,477.3 357.23,433.45 364.45,433.45 "/>
<polygon class="st1" points="389.02,484.11 389.02,484.11 380.28,440.26 388.26,440.53 "/>
<polygon class="st1" points="411.5,486.66 411.5,486.66 407.13,442.81 413.6,442.81 "/>
<polygon class="st1" points="432.58,487.5 432.58,487.5 430,443.65 435.74,445.19 "/>
<polygon class="st1" points="456.31,487.5 456.31,487.5 453.39,445.27 460.24,443.65 "/>
<polygon class="st1" points="481.32,487.5 481.32,487.5 477.02,443.65 483.98,443.65 "/>
<polygon class="st1" points="503.4,480.04 503.4,480.04 500.95,441.87 507.9,440.47 "/>
<polygon class="st1" points="530.02,476.28 530.02,476.28 525.06,436.5 532.02,435.1 "/>
<g>
	<path class="st0" d="M523.65,601.9c-9.7-5.63-21.78-5.63-31.49,0c-3.69,2.08-8.58,2.58-11.51-0.09c-0.22-0.22-0.45-0.45-0.67-0.67
		c-2.93-2.63-1.33-9.04,4.53-12.44c14.42-8.37,32.37-8.37,46.79,0c5.86,3.39,7.46,9.81,4.53,12.44c-0.22,0.22-0.45,0.45-0.67,0.67
		C532.22,604.48,527.34,603.98,523.65,601.9z"/>
</g>
<path class="st0" d="M727.83,744.76c-16.22-8.46-45.18-19.65-69.25-25.83c-1.29-0.35-2.56-0.73-3.83-1.15
	c-4.54-1.51-9.03-3.51-12.82-6.47c-3.99-3.12-7.39-7.54-6.52-12.9c0.6-3.68,2.69-7.19,3.85-10.73c3.09-9.48,4.78-19.59,6.97-29.32
	c2.27-10.1,4.35-20.25,5.72-30.51c0.35-2.66,0.66-5.33,0.91-8c1.75-18.72,1.17-37.86-2.93-56.26c-1.12-5.03-2.52-10.01-4.25-14.86
	c-23.49-65.87-49.02-78.13-49.02-78.13l-23.11,16.34c0,0,0,55.1,0,55.15c0,2.12,6.92,9.03,8.12,11
	c6.21,10.23,10.35,21.69,12.57,33.44c10.74,56.89-22.94,113.59-72.72,140.18c-17.57,9.39-37.12,15.03-56.98,16.59
	c-20.94,1.64-40.92-3.59-60.22-11.64c-29.23-12.2-56.11-31.48-73.6-57.89c-21.17-31.99-30.97-81.58-13.51-117.15
	c2.38-4.84,5.29-9.49,6.68-14.7c1.16-4.36,1.21-8.94,1.24-13.45c0.07-9.4,0.15-18.8,0.22-28.2c0.03-3.38,0.05-6.81-0.9-10.05
	c-2.86-9.86-13.37-15.06-22.81-19.1c-29,24.52-47.49,60.52-52.84,98.12c-5.35,37.6,2.05,76.56,18.7,110.7
	c31.43,64.41,97.12,111,168.38,118.65c55.04,5.9,115.34-10.42,156.26-48.41c1.25-1.16,2.54-2.3,3.91-3.31
	c4.38-3.22,9.84-5.88,15.13-7.2c7.57-1.88,26.16,8.95,36.32,16.44c17.86,15.08,40.01,30.27,54.63,37.89
	c29.66,15.46,59.45,16.97,66.54,3.37S757.48,760.22,727.83,744.76z M748.96,787.96c-1.39,2.68-4.98,2.65-7.55,2.61
	c-3.46-0.05-6.9-0.67-10.24-1.56c-16.78-4.44-30.22-16.02-40.98-29.24c-1.35-1.66-2.72-3.35-3.92-5.13
	c17.24,0,36.81,2.63,50.5,13.98c3.06,2.53,5.82,5.43,8.19,8.61C746.93,779.88,750.79,784.43,748.96,787.96z"/>
<path class="st1" d="M598.12,383.79c-0.08-20.71-9.15-41.68-24.44-55.66c-6.52-5.96-14.24-10.51-22.61-13.34
	c-19.46-6.58-42.7-3.8-58.97,9.13l-3.23,3.66c-1.85-1.39-5.03-5.44-6.93-6.74c-7.82-5.4-15.94-10.5-24.75-14.13
	c-1.23-0.51-2.47-0.99-3.73-1.43c-16.12-5.73-31.45-4.03-46.73,3.08c-3.59,1.67-7.09,3.51-10.53,5.47
	c-1.92,1.09-3.81,2.22-5.69,3.38c-1.99,1.23-8.01,6.57-8.01,6.57s-4.55-4.57-7.43-6.03c-3.23-1.64-6.51-3.19-9.87-4.55
	c-31.2-12.62-65.1,3.2-79,33.26c-1.29,2.79-2.39,5.68-3.27,8.63c-6.63,22.15-2.42,51.69,15.34,67.85
	C315.3,438.43,331.47,446,331.47,446l2.55,94.04c0,0,46.98,19.23,107.23-6.98c60.26-26.21,122.21-2.38,122.21-2.38s0-87.26,0-87.66
	c0-0.47,3.7-2.64,4.1-2.95c2.9-2.23,5.44-4.76,8.21-7.1c5.53-4.65,10.21-10.21,13.86-16.45
	C595.49,406.5,598.17,395.19,598.12,383.79z M548.32,435.87v60.6c0,0-66.66-14.51-117.28,7.49c-50.61,22-83.06,5.11-83.06,5.11
	s-0.17-25.7-2.21-74.89c-12.57-3.47-26.36-9.18-35.72-18.55c-9.16-9.17-14.79-21.81-15.41-34.75
	c-1.16-24.31,18.62-54.97,44.76-56.68c6.53-0.43,13.09,1.52,18.75,4.81c5.75,3.35,10.61,8.02,14.84,13.12
	c0.78,0.94,8.66,10.1,7.84,11.38c54.1-85.07,110.41-1.61,110.47-1.53c-1.02-1.52,4.73-7.75,5.59-8.68c3.4-3.67,7.42-6.79,11.67-9.42
	c9.83-6.07,21.71-9.77,33.31-7.94c23.24,3.66,38.81,29.93,40.95,51.67C585.3,402.74,571.96,426.36,548.32,435.87z"/>
<g>
	<g>
		<path class="st1" d="M832.58,586.53v-27.14c4.06,4.13,8.47,7.22,13.23,9.29c4.76,2.06,9.56,3.1,14.42,3.1
			c2.85,0,5.33-0.31,7.45-0.93c2.12-0.62,3.9-1.48,5.32-2.59c1.42-1.1,2.48-2.4,3.18-3.9c0.7-1.5,1.05-3.12,1.05-4.88
			c0-2.37-0.56-4.5-1.68-6.36s-2.65-3.59-4.58-5.17c-1.94-1.58-4.23-3.11-6.89-4.58c-2.66-1.47-5.53-2.97-8.61-4.5
			c-7.84-3.96-13.68-8.79-17.53-14.5c-3.85-5.71-5.77-12.61-5.77-20.69c0-6.33,1.05-11.77,3.15-16.33c2.1-4.55,4.96-8.3,8.57-11.24
			c3.61-2.94,7.8-5.1,12.56-6.49c4.76-1.38,9.8-2.08,15.12-2.08c5.22,0,9.85,0.38,13.89,1.15c4.03,0.76,7.76,1.94,11.16,3.52v25.36
			c-1.68-1.41-3.51-2.66-5.49-3.73c-1.98-1.07-4.02-1.96-6.12-2.67c-2.1-0.71-4.19-1.23-6.26-1.57c-2.08-0.34-4.05-0.51-5.91-0.51
			c-2.57,0-4.9,0.3-7,0.89c-2.1,0.59-3.87,1.43-5.32,2.5c-1.45,1.07-2.57,2.36-3.36,3.86c-0.79,1.5-1.19,3.18-1.19,5.05
			c0,2.04,0.44,3.86,1.33,5.47c0.89,1.61,2.15,3.14,3.78,4.58c1.63,1.44,3.61,2.86,5.95,4.24c2.33,1.39,4.97,2.81,7.91,4.28
			c4.01,2.04,7.62,4.2,10.81,6.49c3.19,2.29,5.94,4.88,8.22,7.76c2.29,2.88,4.03,6.18,5.25,9.88c1.21,3.7,1.82,8.02,1.82,12.93
			c0,6.79-1.06,12.48-3.18,17.09c-2.12,4.61-5,8.34-8.64,11.2c-3.64,2.86-7.87,4.91-12.7,6.15s-9.93,1.87-15.29,1.87
			c-5.51,0-10.74-0.57-15.71-1.7C840.53,590.48,836.22,588.79,832.58,586.53z"/>
		<path class="st1" d="M977.72,591.19h-60.18V469.57h57.87v22.31h-35.27v27.06h32.82v22.22h-32.82v27.82h37.58V591.19z"/>
		<path class="st1" d="M1084.09,591.19h-22.81l-41.36-76.42c-2.43-4.47-4.11-7.83-5.04-10.09h-0.28c0.37,4.3,0.56,10.86,0.56,19.68
			v66.83h-21.34V469.57h24.35l39.82,74.04c1.82,3.34,3.5,6.64,5.04,9.92h0.28c-0.37-2.83-0.56-8.4-0.56-16.71v-67.26h21.34V591.19z"
			/>
		<path class="st1" d="M1195.29,591.19h-24.63l-7.14-27.06h-35.69l-7.07,27.06h-24.49l36.53-121.62h26.8L1195.29,591.19z
			 M1158.34,543.1l-10.78-40.88c-0.79-3.05-1.35-6.7-1.68-10.94h-0.56c-0.23,3.56-0.82,7.1-1.75,10.6l-10.92,41.22H1158.34z"/>
		<path class="st1" d="M1230.35,591.19h-22.38l-0.17-21.2h0.02v-79.22h0.04v-21.2h22.51v21.2h0.04v79.22"/>
	</g>
</g>
<g>
	<text transform="matrix(1 0 0 1 812.9821 739.4529)" class="st0 st2 st3">Alimentos</text>
</g>
</svg>
